<svg xmlns="http://www.w3.org/2000/svg" width="1000" height="1000" viewBox="0 0 1000 1000">
  <defs>
    <style>
      .cls-1 {
        fill: #fefefe;
      }

      .cls-1, .cls-2 {
        fill-rule: evenodd;
      }
    </style>
  </defs>
  <path id="ART" class="cls-1" d="M282.636,606.979V548.444h19.34V482.208h-19.34V455.851q0-15.918,3.337-21.566t11.382-5.648q8.384,0,12.066,6.247t3.68,20.967V606.979h73.253V473.822q0-32-4.278-50.148a105.147,105.147,0,0,0-13.864-33.033,85.024,85.024,0,0,0-71.884-38.509q-32.007,0-54.512,18.4t-31.065,51.774a140.293,140.293,0,0,0-3.508,20.024q-1.116,10.615-1.113,31.493V606.979h76.506Zm225.751-78.56,34.059,78.56h78.559L577.532,506q17.971-13.863,26.529-29.609a71.927,71.927,0,0,0,8.558-34.915,82.873,82.873,0,0,0-34.06-67.263,86.419,86.419,0,0,0-25.844-13.094q-13.35-4.019-39.023-4.022H422.125V606.979h74.794V428.637h19.512q11.809,0,16.088,3.68t4.279,12.751q0,9.241-4.621,13.35t-15.746,4.108h-8.044v65.893Zm165.847-98.413V606.979h74.794V430.006H802.6V357.1H620.663v72.911h53.571Z"/>
  <path id="caffe" class="cls-2" d="M668.72,395.685a3.339,3.339,0,0,1-2.31.786,3.62,3.62,0,0,1-3.573-3.572,3.335,3.335,0,0,1,1.084-2.525,3.751,3.751,0,0,1,2.68-1.024,3.7,3.7,0,0,1,1.655.369,5.181,5.181,0,0,1,1.465,1.131h9.551a12.362,12.362,0,0,0-4.419-7.693,12.861,12.861,0,0,0-8.443-2.977,12.667,12.667,0,0,0-4.954,1,13.069,13.069,0,0,0-4.264,2.906,12.986,12.986,0,0,0-2.322,15.363,13.257,13.257,0,0,0,7.765,6.371,13.386,13.386,0,0,0,13.088-3.156,12.413,12.413,0,0,0,3.811-9.265v-0.1h-9.575A4.366,4.366,0,0,1,668.72,395.685Zm38.681,1.906v-1.81a25.171,25.171,0,0,0-.369-4.7,17.414,17.414,0,0,0-1.156-3.679,11.968,11.968,0,0,0-4.62-5.3,13.362,13.362,0,0,0-11.909-.941,12.639,12.639,0,0,0-4.192,2.835,12.219,12.219,0,0,0-2.763,4.12,12.868,12.868,0,0,0-.953,4.907,12.749,12.749,0,0,0,12.838,12.909q0.548,0,1.834-.071l0.167-.024v-9.647a8.563,8.563,0,0,1-1.024.322,3.667,3.667,0,0,1-.834.107,3.526,3.526,0,0,1-2.584-1.024,3.639,3.639,0,0,1,2.584-6.193,3.059,3.059,0,0,1,2.834,1.406,10.132,10.132,0,0,1,.858,4.93v9.956H707.4v-8.1Zm4.859-6.574v14.672h9.956V391.017h3.834V380.871h-3.834a1.374,1.374,0,0,1-.036-0.215q-0.012-.118-0.012-0.333a1.815,1.815,0,0,1,.75-1.537,3.384,3.384,0,0,1,2.06-.559q0.335,0,.7.035t0.822,0.108v-7.265a9.269,9.269,0,0,0-2.013-.667,11.236,11.236,0,0,0-2.274-.214,9.009,9.009,0,0,0-6.943,2.787,10.589,10.589,0,0,0-2.585,7.5v0.358h-2.929v10.146h2.5Zm16.934,0v14.672h9.956V391.017h3.835V380.871H739.15a1.5,1.5,0,0,1-.036-0.215q-0.012-.118-0.012-0.333a1.816,1.816,0,0,1,.751-1.537,3.384,3.384,0,0,1,2.06-.559q0.333,0,.7.035c0.246,0.024.519,0.06,0.821,0.108v-7.265a9.261,9.261,0,0,0-2.012-.667,11.239,11.239,0,0,0-2.275-.214,9.011,9.011,0,0,0-6.943,2.787,10.593,10.593,0,0,0-2.584,7.5v0.358h-2.93v10.146h2.5Zm31.178,5.692a2.988,2.988,0,0,1-1.262,1.227,3.608,3.608,0,0,1-1.763.488,3.367,3.367,0,0,1-2.906-1.476,6.98,6.98,0,0,1-1.048-4.1,6.437,6.437,0,0,1,1.143-4,3.6,3.6,0,0,1,3-1.5,3.546,3.546,0,0,1,2.346.726,2.43,2.43,0,0,1,.869,1.965v0.1h-4.144a1.015,1.015,0,0,0-.953.571,3.839,3.839,0,0,0-.31,1.763,3.685,3.685,0,0,0,.31,1.739,1.021,1.021,0,0,0,.953.547h13.719v-0.524a14.179,14.179,0,0,0-3.692-10.134,12.389,12.389,0,0,0-9.432-3.918,12.667,12.667,0,0,0-4.954,1,13.054,13.054,0,0,0-4.263,2.906,13.034,13.034,0,0,0-2.335,15.374,12.611,12.611,0,0,0,4.288,4.657,12.95,12.95,0,0,0,3.5,1.691,12.73,12.73,0,0,0,3.763.572,13.008,13.008,0,0,0,4.478-.763,14.506,14.506,0,0,0,4.049-2.31Z"/>
</svg>
